<?xml version="1.0" encoding="utf-8" standalone="no"?>
<!DOCTYPE svg PUBLIC "-//W3C//DTD SVG 1.1//EN"
  "http://www.w3.org/Graphics/SVG/1.1/DTD/svg11.dtd">
<svg xmlns:xlink="http://www.w3.org/1999/xlink" width="429.185156pt" height="288.032656pt" viewBox="0 0 429.185156 288.032656" xmlns="http://www.w3.org/2000/svg" version="1.1">
 <metadata>
  <rdf:RDF xmlns:dc="http://purl.org/dc/elements/1.1/" xmlns:cc="http://creativecommons.org/ns#" xmlns:rdf="http://www.w3.org/1999/02/22-rdf-syntax-ns#">
   <cc:Work>
    <dc:type rdf:resource="http://purl.org/dc/dcmitype/StillImage"/>
    <dc:date>2023-04-12T20:36:19.103033</dc:date>
    <dc:format>image/svg+xml</dc:format>
    <dc:creator>
     <cc:Agent>
      <dc:title>Matplotlib v3.7.1, https://matplotlib.org/</dc:title>
     </cc:Agent>
    </dc:creator>
   </cc:Work>
  </rdf:RDF>
 </metadata>
 <defs>
  <style type="text/css">*{stroke-linejoin: round; stroke-linecap: butt}</style>
 </defs>
 <g id="figure_1">
  <g id="patch_1">
   <path d="M 0 288.032656 
L 429.185156 288.032656 
L 429.185156 0 
L 0 0 
z
" style="fill: #ffffff"/>
  </g>
  <g id="axes_1">
   <g id="patch_2">
    <path d="M 87.185156 228.96 
L 421.985156 228.96 
L 421.985156 7.2 
L 87.185156 7.2 
z
" style="fill: #ffffff"/>
   </g>
   <g id="matplotlib.axis_1">
    <g id="xtick_1">
     <g id="line2d_1">
      <defs>
       <path id="mb84d0bc929" d="M 0 0 
L 0 3.5 
" style="stroke: #000000; stroke-width: 0.8"/>
      </defs>
      <g>
       <use xlink:href="#mb84d0bc929" x="102.403338" y="228.96" style="stroke: #000000; stroke-width: 0.8"/>
      </g>
     </g>
     <g id="text_1">
      <!-- 0 -->
      <g transform="translate(97.403338 249.8475) scale(0.2 -0.2)">
       <defs>
        <path id="TimesNewRomanPSMT-30" d="M 231 2094 
Q 231 2819 450 3342 
Q 669 3866 1031 4122 
Q 1313 4325 1613 4325 
Q 2100 4325 2488 3828 
Q 2972 3213 2972 2159 
Q 2972 1422 2759 906 
Q 2547 391 2217 158 
Q 1888 -75 1581 -75 
Q 975 -75 572 641 
Q 231 1244 231 2094 
z
M 844 2016 
Q 844 1141 1059 588 
Q 1238 122 1591 122 
Q 1759 122 1940 273 
Q 2122 425 2216 781 
Q 2359 1319 2359 2297 
Q 2359 3022 2209 3506 
Q 2097 3866 1919 4016 
Q 1791 4119 1609 4119 
Q 1397 4119 1231 3928 
Q 1006 3669 925 3112 
Q 844 2556 844 2016 
z
" transform="scale(0.015625)"/>
       </defs>
       <use xlink:href="#TimesNewRomanPSMT-30"/>
      </g>
     </g>
    </g>
    <g id="xtick_2">
     <g id="line2d_2">
      <g>
       <use xlink:href="#mb84d0bc929" x="173.218516" y="228.96" style="stroke: #000000; stroke-width: 0.8"/>
      </g>
     </g>
     <g id="text_2">
      <!-- 500 -->
      <g transform="translate(158.218516 249.8475) scale(0.2 -0.2)">
       <defs>
        <path id="TimesNewRomanPSMT-35" d="M 2778 4238 
L 2534 3706 
L 1259 3706 
L 981 3138 
Q 1809 3016 2294 2522 
Q 2709 2097 2709 1522 
Q 2709 1188 2573 903 
Q 2438 619 2231 419 
Q 2025 219 1772 97 
Q 1413 -75 1034 -75 
Q 653 -75 479 54 
Q 306 184 306 341 
Q 306 428 378 495 
Q 450 563 559 563 
Q 641 563 702 538 
Q 763 513 909 409 
Q 1144 247 1384 247 
Q 1750 247 2026 523 
Q 2303 800 2303 1197 
Q 2303 1581 2056 1914 
Q 1809 2247 1375 2428 
Q 1034 2569 447 2591 
L 1259 4238 
L 2778 4238 
z
" transform="scale(0.015625)"/>
       </defs>
       <use xlink:href="#TimesNewRomanPSMT-35"/>
       <use xlink:href="#TimesNewRomanPSMT-30" x="50"/>
       <use xlink:href="#TimesNewRomanPSMT-30" x="100"/>
      </g>
     </g>
    </g>
    <g id="xtick_3">
     <g id="line2d_3">
      <g>
       <use xlink:href="#mb84d0bc929" x="244.033695" y="228.96" style="stroke: #000000; stroke-width: 0.8"/>
      </g>
     </g>
     <g id="text_3">
      <!-- 1000 -->
      <g transform="translate(224.033695 249.8475) scale(0.2 -0.2)">
       <defs>
        <path id="TimesNewRomanPSMT-31" d="M 750 3822 
L 1781 4325 
L 1884 4325 
L 1884 747 
Q 1884 391 1914 303 
Q 1944 216 2037 169 
Q 2131 122 2419 116 
L 2419 0 
L 825 0 
L 825 116 
Q 1125 122 1212 167 
Q 1300 213 1334 289 
Q 1369 366 1369 747 
L 1369 3034 
Q 1369 3497 1338 3628 
Q 1316 3728 1258 3775 
Q 1200 3822 1119 3822 
Q 1003 3822 797 3725 
L 750 3822 
z
" transform="scale(0.015625)"/>
       </defs>
       <use xlink:href="#TimesNewRomanPSMT-31"/>
       <use xlink:href="#TimesNewRomanPSMT-30" x="50"/>
       <use xlink:href="#TimesNewRomanPSMT-30" x="100"/>
       <use xlink:href="#TimesNewRomanPSMT-30" x="150"/>
      </g>
     </g>
    </g>
    <g id="xtick_4">
     <g id="line2d_4">
      <g>
       <use xlink:href="#mb84d0bc929" x="314.848873" y="228.96" style="stroke: #000000; stroke-width: 0.8"/>
      </g>
     </g>
     <g id="text_4">
      <!-- 1500 -->
      <g transform="translate(294.848873 249.8475) scale(0.2 -0.2)">
       <use xlink:href="#TimesNewRomanPSMT-31"/>
       <use xlink:href="#TimesNewRomanPSMT-35" x="50"/>
       <use xlink:href="#TimesNewRomanPSMT-30" x="100"/>
       <use xlink:href="#TimesNewRomanPSMT-30" x="150"/>
      </g>
     </g>
    </g>
    <g id="xtick_5">
     <g id="line2d_5">
      <g>
       <use xlink:href="#mb84d0bc929" x="385.664051" y="228.96" style="stroke: #000000; stroke-width: 0.8"/>
      </g>
     </g>
     <g id="text_5">
      <!-- 2000 -->
      <g transform="translate(365.664051 249.8475) scale(0.2 -0.2)">
       <defs>
        <path id="TimesNewRomanPSMT-32" d="M 2934 816 
L 2638 0 
L 138 0 
L 138 116 
Q 1241 1122 1691 1759 
Q 2141 2397 2141 2925 
Q 2141 3328 1894 3587 
Q 1647 3847 1303 3847 
Q 991 3847 742 3664 
Q 494 3481 375 3128 
L 259 3128 
Q 338 3706 661 4015 
Q 984 4325 1469 4325 
Q 1984 4325 2329 3994 
Q 2675 3663 2675 3213 
Q 2675 2891 2525 2569 
Q 2294 2063 1775 1497 
Q 997 647 803 472 
L 1909 472 
Q 2247 472 2383 497 
Q 2519 522 2628 598 
Q 2738 675 2819 816 
L 2934 816 
z
" transform="scale(0.015625)"/>
       </defs>
       <use xlink:href="#TimesNewRomanPSMT-32"/>
       <use xlink:href="#TimesNewRomanPSMT-30" x="50"/>
       <use xlink:href="#TimesNewRomanPSMT-30" x="100"/>
       <use xlink:href="#TimesNewRomanPSMT-30" x="150"/>
      </g>
     </g>
    </g>
    <g id="text_6">
     <!-- Time -->
     <g transform="translate(228.64375 275.485) scale(0.25 -0.25)">
      <defs>
       <path id="TimesNewRomanPSMT-54" d="M 3703 4238 
L 3750 3244 
L 3631 3244 
Q 3597 3506 3538 3619 
Q 3441 3800 3280 3886 
Q 3119 3972 2856 3972 
L 2259 3972 
L 2259 734 
Q 2259 344 2344 247 
Q 2463 116 2709 116 
L 2856 116 
L 2856 0 
L 1059 0 
L 1059 116 
L 1209 116 
Q 1478 116 1591 278 
Q 1659 378 1659 734 
L 1659 3972 
L 1150 3972 
Q 853 3972 728 3928 
Q 566 3869 450 3700 
Q 334 3531 313 3244 
L 194 3244 
L 244 4238 
L 3703 4238 
z
" transform="scale(0.015625)"/>
       <path id="TimesNewRomanPSMT-69" d="M 928 4444 
Q 1059 4444 1151 4351 
Q 1244 4259 1244 4128 
Q 1244 3997 1151 3903 
Q 1059 3809 928 3809 
Q 797 3809 703 3903 
Q 609 3997 609 4128 
Q 609 4259 701 4351 
Q 794 4444 928 4444 
z
M 1188 2947 
L 1188 647 
Q 1188 378 1227 289 
Q 1266 200 1342 156 
Q 1419 113 1622 113 
L 1622 0 
L 231 0 
L 231 113 
Q 441 113 512 153 
Q 584 194 626 287 
Q 669 381 669 647 
L 669 1750 
Q 669 2216 641 2353 
Q 619 2453 572 2492 
Q 525 2531 444 2531 
Q 356 2531 231 2484 
L 188 2597 
L 1050 2947 
L 1188 2947 
z
" transform="scale(0.015625)"/>
       <path id="TimesNewRomanPSMT-6d" d="M 1050 2338 
Q 1363 2650 1419 2697 
Q 1559 2816 1721 2881 
Q 1884 2947 2044 2947 
Q 2313 2947 2506 2790 
Q 2700 2634 2766 2338 
Q 3088 2713 3309 2830 
Q 3531 2947 3766 2947 
Q 3994 2947 4170 2830 
Q 4347 2713 4450 2447 
Q 4519 2266 4519 1878 
L 4519 647 
Q 4519 378 4559 278 
Q 4591 209 4675 161 
Q 4759 113 4950 113 
L 4950 0 
L 3538 0 
L 3538 113 
L 3597 113 
Q 3781 113 3884 184 
Q 3956 234 3988 344 
Q 4000 397 4000 647 
L 4000 1878 
Q 4000 2228 3916 2372 
Q 3794 2572 3525 2572 
Q 3359 2572 3192 2489 
Q 3025 2406 2788 2181 
L 2781 2147 
L 2788 2013 
L 2788 647 
Q 2788 353 2820 281 
Q 2853 209 2943 161 
Q 3034 113 3253 113 
L 3253 0 
L 1806 0 
L 1806 113 
Q 2044 113 2133 169 
Q 2222 225 2256 338 
Q 2272 391 2272 647 
L 2272 1878 
Q 2272 2228 2169 2381 
Q 2031 2581 1784 2581 
Q 1616 2581 1450 2491 
Q 1191 2353 1050 2181 
L 1050 647 
Q 1050 366 1089 281 
Q 1128 197 1204 155 
Q 1281 113 1516 113 
L 1516 0 
L 100 0 
L 100 113 
Q 297 113 375 155 
Q 453 197 493 289 
Q 534 381 534 647 
L 534 1741 
Q 534 2213 506 2350 
Q 484 2453 437 2492 
Q 391 2531 309 2531 
Q 222 2531 100 2484 
L 53 2597 
L 916 2947 
L 1050 2947 
L 1050 2338 
z
" transform="scale(0.015625)"/>
       <path id="TimesNewRomanPSMT-65" d="M 681 1784 
Q 678 1147 991 784 
Q 1303 422 1725 422 
Q 2006 422 2214 576 
Q 2422 731 2563 1106 
L 2659 1044 
Q 2594 616 2278 264 
Q 1963 -88 1488 -88 
Q 972 -88 605 314 
Q 238 716 238 1394 
Q 238 2128 614 2539 
Q 991 2950 1559 2950 
Q 2041 2950 2350 2633 
Q 2659 2316 2659 1784 
L 681 1784 
z
M 681 1966 
L 2006 1966 
Q 1991 2241 1941 2353 
Q 1863 2528 1708 2628 
Q 1553 2728 1384 2728 
Q 1125 2728 920 2526 
Q 716 2325 681 1966 
z
" transform="scale(0.015625)"/>
      </defs>
      <use xlink:href="#TimesNewRomanPSMT-54"/>
      <use xlink:href="#TimesNewRomanPSMT-69" x="57.583984"/>
      <use xlink:href="#TimesNewRomanPSMT-6d" x="85.367188"/>
      <use xlink:href="#TimesNewRomanPSMT-65" x="163.150391"/>
     </g>
    </g>
   </g>
   <g id="matplotlib.axis_2">
    <g id="ytick_1">
     <g id="line2d_6">
      <defs>
       <path id="m9d2d76c538" d="M 0 0 
L -3.5 0 
" style="stroke: #000000; stroke-width: 0.8"/>
      </defs>
      <g>
       <use xlink:href="#m9d2d76c538" x="87.185156" y="224.514582" style="stroke: #000000; stroke-width: 0.8"/>
      </g>
     </g>
     <g id="text_7">
      <!-- −0.04 -->
      <g transform="translate(33.907031 231.458332) scale(0.2 -0.2)">
       <defs>
        <path id="TimesNewRomanPSMT-2212" d="M 3484 2000 
L 116 2000 
L 116 2256 
L 3484 2256 
L 3484 2000 
z
" transform="scale(0.015625)"/>
        <path id="TimesNewRomanPSMT-2e" d="M 800 606 
Q 947 606 1047 504 
Q 1147 403 1147 259 
Q 1147 116 1045 14 
Q 944 -88 800 -88 
Q 656 -88 554 14 
Q 453 116 453 259 
Q 453 406 554 506 
Q 656 606 800 606 
z
" transform="scale(0.015625)"/>
        <path id="TimesNewRomanPSMT-34" d="M 2978 1563 
L 2978 1119 
L 2409 1119 
L 2409 0 
L 1894 0 
L 1894 1119 
L 100 1119 
L 100 1519 
L 2066 4325 
L 2409 4325 
L 2409 1563 
L 2978 1563 
z
M 1894 1563 
L 1894 3666 
L 406 1563 
L 1894 1563 
z
" transform="scale(0.015625)"/>
       </defs>
       <use xlink:href="#TimesNewRomanPSMT-2212"/>
       <use xlink:href="#TimesNewRomanPSMT-30" x="56.396484"/>
       <use xlink:href="#TimesNewRomanPSMT-2e" x="106.396484"/>
       <use xlink:href="#TimesNewRomanPSMT-30" x="131.396484"/>
       <use xlink:href="#TimesNewRomanPSMT-34" x="181.396484"/>
      </g>
     </g>
    </g>
    <g id="ytick_2">
     <g id="line2d_7">
      <g>
       <use xlink:href="#m9d2d76c538" x="87.185156" y="180.156" style="stroke: #000000; stroke-width: 0.8"/>
      </g>
     </g>
     <g id="text_8">
      <!-- −0.02 -->
      <g transform="translate(33.907031 187.09975) scale(0.2 -0.2)">
       <use xlink:href="#TimesNewRomanPSMT-2212"/>
       <use xlink:href="#TimesNewRomanPSMT-30" x="56.396484"/>
       <use xlink:href="#TimesNewRomanPSMT-2e" x="106.396484"/>
       <use xlink:href="#TimesNewRomanPSMT-30" x="131.396484"/>
       <use xlink:href="#TimesNewRomanPSMT-32" x="181.396484"/>
      </g>
     </g>
    </g>
    <g id="ytick_3">
     <g id="line2d_8">
      <g>
       <use xlink:href="#m9d2d76c538" x="87.185156" y="135.797417" style="stroke: #000000; stroke-width: 0.8"/>
      </g>
     </g>
     <g id="text_9">
      <!-- 0.00 -->
      <g transform="translate(45.185156 142.741167) scale(0.2 -0.2)">
       <use xlink:href="#TimesNewRomanPSMT-30"/>
       <use xlink:href="#TimesNewRomanPSMT-2e" x="50"/>
       <use xlink:href="#TimesNewRomanPSMT-30" x="75"/>
       <use xlink:href="#TimesNewRomanPSMT-30" x="125"/>
      </g>
     </g>
    </g>
    <g id="ytick_4">
     <g id="line2d_9">
      <g>
       <use xlink:href="#m9d2d76c538" x="87.185156" y="91.438834" style="stroke: #000000; stroke-width: 0.8"/>
      </g>
     </g>
     <g id="text_10">
      <!-- 0.02 -->
      <g transform="translate(45.185156 98.382584) scale(0.2 -0.2)">
       <use xlink:href="#TimesNewRomanPSMT-30"/>
       <use xlink:href="#TimesNewRomanPSMT-2e" x="50"/>
       <use xlink:href="#TimesNewRomanPSMT-30" x="75"/>
       <use xlink:href="#TimesNewRomanPSMT-32" x="125"/>
      </g>
     </g>
    </g>
    <g id="ytick_5">
     <g id="line2d_10">
      <g>
       <use xlink:href="#m9d2d76c538" x="87.185156" y="47.080251" style="stroke: #000000; stroke-width: 0.8"/>
      </g>
     </g>
     <g id="text_11">
      <!-- 0.04 -->
      <g transform="translate(45.185156 54.024001) scale(0.2 -0.2)">
       <use xlink:href="#TimesNewRomanPSMT-30"/>
       <use xlink:href="#TimesNewRomanPSMT-2e" x="50"/>
       <use xlink:href="#TimesNewRomanPSMT-30" x="75"/>
       <use xlink:href="#TimesNewRomanPSMT-34" x="125"/>
      </g>
     </g>
    </g>
    <g id="text_12">
     <!-- Value -->
     <g transform="translate(24.559375 146.537031) rotate(-90) scale(0.25 -0.25)">
      <defs>
       <path id="TimesNewRomanPSMT-56" d="M 4544 4238 
L 4544 4122 
Q 4319 4081 4203 3978 
Q 4038 3825 3909 3509 
L 2431 -97 
L 2316 -97 
L 728 3556 
Q 606 3838 556 3900 
Q 478 3997 364 4051 
Q 250 4106 56 4122 
L 56 4238 
L 1788 4238 
L 1788 4122 
Q 1494 4094 1406 4022 
Q 1319 3950 1319 3838 
Q 1319 3681 1463 3350 
L 2541 866 
L 3541 3319 
Q 3688 3681 3688 3822 
Q 3688 3913 3597 3995 
Q 3506 4078 3291 4113 
Q 3275 4116 3238 4122 
L 3238 4238 
L 4544 4238 
z
" transform="scale(0.015625)"/>
       <path id="TimesNewRomanPSMT-61" d="M 1822 413 
Q 1381 72 1269 19 
Q 1100 -59 909 -59 
Q 613 -59 420 144 
Q 228 347 228 678 
Q 228 888 322 1041 
Q 450 1253 767 1440 
Q 1084 1628 1822 1897 
L 1822 2009 
Q 1822 2438 1686 2597 
Q 1550 2756 1291 2756 
Q 1094 2756 978 2650 
Q 859 2544 859 2406 
L 866 2225 
Q 866 2081 792 2003 
Q 719 1925 600 1925 
Q 484 1925 411 2006 
Q 338 2088 338 2228 
Q 338 2497 613 2722 
Q 888 2947 1384 2947 
Q 1766 2947 2009 2819 
Q 2194 2722 2281 2516 
Q 2338 2381 2338 1966 
L 2338 994 
Q 2338 584 2353 492 
Q 2369 400 2405 369 
Q 2441 338 2488 338 
Q 2538 338 2575 359 
Q 2641 400 2828 588 
L 2828 413 
Q 2478 -56 2159 -56 
Q 2006 -56 1915 50 
Q 1825 156 1822 413 
z
M 1822 616 
L 1822 1706 
Q 1350 1519 1213 1441 
Q 966 1303 859 1153 
Q 753 1003 753 825 
Q 753 600 887 451 
Q 1022 303 1197 303 
Q 1434 303 1822 616 
z
" transform="scale(0.015625)"/>
       <path id="TimesNewRomanPSMT-6c" d="M 1184 4444 
L 1184 647 
Q 1184 378 1223 290 
Q 1263 203 1344 158 
Q 1425 113 1647 113 
L 1647 0 
L 244 0 
L 244 113 
Q 441 113 512 153 
Q 584 194 625 287 
Q 666 381 666 647 
L 666 3247 
Q 666 3731 644 3842 
Q 622 3953 573 3993 
Q 525 4034 450 4034 
Q 369 4034 244 3984 
L 191 4094 
L 1044 4444 
L 1184 4444 
z
" transform="scale(0.015625)"/>
       <path id="TimesNewRomanPSMT-75" d="M 2709 2863 
L 2709 1128 
Q 2709 631 2732 520 
Q 2756 409 2807 365 
Q 2859 322 2928 322 
Q 3025 322 3147 375 
L 3191 266 
L 2334 -88 
L 2194 -88 
L 2194 519 
Q 1825 119 1631 15 
Q 1438 -88 1222 -88 
Q 981 -88 804 51 
Q 628 191 559 409 
Q 491 628 491 1028 
L 491 2306 
Q 491 2509 447 2587 
Q 403 2666 317 2708 
Q 231 2750 6 2747 
L 6 2863 
L 1009 2863 
L 1009 947 
Q 1009 547 1148 422 
Q 1288 297 1484 297 
Q 1619 297 1789 381 
Q 1959 466 2194 703 
L 2194 2325 
Q 2194 2569 2105 2655 
Q 2016 2741 1734 2747 
L 1734 2863 
L 2709 2863 
z
" transform="scale(0.015625)"/>
      </defs>
      <use xlink:href="#TimesNewRomanPSMT-56"/>
      <use xlink:href="#TimesNewRomanPSMT-61" x="61.091797"/>
      <use xlink:href="#TimesNewRomanPSMT-6c" x="105.476562"/>
      <use xlink:href="#TimesNewRomanPSMT-75" x="133.259766"/>
      <use xlink:href="#TimesNewRomanPSMT-65" x="183.259766"/>
     </g>
    </g>
   </g>
   <g id="line2d_11">
    <path d="M 102.403338 112.334619 
L 102.544968 112.099041 
L 102.969859 110.69025 
L 103.11149 111.475706 
L 103.819642 107.012815 
L 103.961272 107.929479 
L 104.102902 107.444653 
L 104.244533 105.335496 
L 104.386163 105.665357 
L 104.811054 101.417499 
L 105.094315 99.620202 
L 105.235945 95.869498 
L 105.377576 96.246222 
L 105.519206 95.828684 
L 105.802467 94.347542 
L 105.944097 93.918204 
L 106.085727 94.573677 
L 106.227358 95.878574 
L 106.368988 95.556322 
L 106.510618 93.26788 
L 106.652249 92.970722 
L 106.793879 92.017603 
L 106.935509 92.116726 
L 107.360401 87.956299 
L 107.643661 86.465245 
L 107.785292 86.162434 
L 107.926922 86.364835 
L 108.068552 87.099267 
L 108.635074 93.587526 
L 108.776704 92.2247 
L 109.059965 94.152759 
L 109.201595 93.279953 
L 109.484856 88.600344 
L 109.626486 89.997633 
L 109.768117 88.041324 
L 109.909747 88.937365 
L 110.051377 86.644609 
L 110.476268 92.014083 
L 110.617899 89.521352 
L 110.759529 90.021937 
L 110.901159 86.582146 
L 111.04279 89.165011 
L 111.18442 84.951591 
L 111.467681 87.416085 
L 111.609311 85.984875 
L 111.750942 82.480427 
L 111.892572 82.685774 
L 112.034202 81.398255 
L 112.175833 82.232332 
L 112.317463 81.703755 
L 112.459093 81.883119 
L 112.600724 80.82241 
L 112.742354 76.853415 
L 112.883984 77.408086 
L 113.025615 78.67533 
L 113.167245 82.209598 
L 113.308876 77.468338 
L 113.450506 78.686509 
L 113.592136 77.744989 
L 114.017027 69.092085 
L 114.158658 72.481817 
L 114.441918 67.864033 
L 114.583549 69.183938 
L 114.725179 65.230357 
L 114.866809 65.855336 
L 115.00844 64.805686 
L 115.15007 62.267616 
L 115.433331 64.956731 
L 115.574961 61.312751 
L 115.716592 63.679095 
L 115.858222 61.18365 
L 115.999852 62.248702 
L 116.141483 59.384779 
L 116.283113 60.392595 
L 116.424743 60.183 
L 116.708004 58.491275 
L 116.849634 61.407741 
L 116.991265 61.696475 
L 117.274526 66.258906 
L 117.416156 63.192058 
L 117.557786 64.938152 
L 117.699417 61.344099 
L 117.841047 61.116693 
L 117.982677 60.52369 
L 118.265938 54.386059 
L 118.549199 57.337788 
L 118.690829 57.77322 
L 118.832459 57.847987 
L 118.97409 60.782019 
L 119.257351 56.312594 
L 119.398981 54.842183 
L 119.540611 55.309811 
L 119.682242 56.227967 
L 119.823872 51.47608 
L 119.965502 53.899762 
L 120.107133 53.779051 
L 120.390393 48.578285 
L 120.532024 48.904542 
L 120.815284 50.300163 
L 120.956915 49.617385 
L 121.098545 46.519375 
L 121.240175 49.535261 
L 121.523436 46.359298 
L 121.665067 46.748012 
L 121.806697 46.122084 
L 121.948327 46.793429 
L 122.089958 50.210674 
L 122.231588 50.169205 
L 122.373218 51.328561 
L 122.514849 45.711146 
L 122.656479 47.142965 
L 122.798109 45.256991 
L 123.08137 36.71181 
L 123.223 35.995929 
L 123.506261 45.45482 
L 123.647892 44.679711 
L 123.789522 46.823069 
L 123.931152 45.465665 
L 124.072783 43.037051 
L 124.214413 48.585611 
L 124.497674 46.071062 
L 124.639304 49.131765 
L 124.780934 58.640231 
L 125.064195 53.180182 
L 125.347456 48.551213 
L 125.489086 48.93236 
L 125.630717 53.053849 
L 125.772347 52.981025 
L 125.913977 45.629362 
L 126.055608 50.204448 
L 126.197238 49.618241 
L 126.480499 49.51253 
L 126.622129 49.258113 
L 126.763759 53.980242 
L 126.90539 54.772393 
L 127.04702 52.316383 
L 127.18865 53.47565 
L 127.613542 44.785626 
L 127.755172 45.268713 
L 127.896802 46.639704 
L 128.180063 42.870098 
L 128.321693 46.167833 
L 128.463324 43.476305 
L 128.604954 48.932887 
L 128.746584 49.293567 
L 129.029845 54.978368 
L 129.171475 53.333955 
L 129.879627 34.604256 
L 130.162888 38.842148 
L 130.304518 38.794844 
L 130.729409 45.781729 
L 130.87104 41.80765 
L 131.1543 40.491445 
L 131.295931 35.972485 
L 131.437561 38.771347 
L 131.862452 28.715144 
L 132.145713 32.219283 
L 132.428974 24.266024 
L 132.570604 26.115593 
L 132.712234 33.150037 
L 132.853865 31.78224 
L 132.995495 33.983446 
L 133.137125 31.138191 
L 133.278756 25.66316 
L 133.420386 34.102704 
L 133.562017 34.282079 
L 133.703647 34.024101 
L 133.845277 31.025949 
L 133.986908 37.552564 
L 134.270168 27.389221 
L 134.411799 33.506614 
L 134.553429 31.526526 
L 134.695059 33.845136 
L 134.83669 32.35329 
L 134.97832 32.443598 
L 135.261581 21.993532 
L 135.403211 23.962479 
L 135.686472 17.28 
L 135.969733 25.190127 
L 136.111363 25.489487 
L 136.394624 23.940552 
L 136.536254 26.92993 
L 136.677884 19.871872 
L 136.961145 22.064228 
L 137.102775 19.420381 
L 137.244406 19.870816 
L 137.527667 26.708483 
L 137.669297 25.196018 
L 137.810927 25.91204 
L 137.952558 28.392967 
L 138.235818 38.361472 
L 138.377449 35.559085 
L 138.519079 135.797417 
L 139.0856 135.797417 
L 139.227231 132.834373 
L 139.368861 127.515358 
L 139.510492 126.607649 
L 139.652122 127.71174 
L 139.793752 126.09132 
L 139.935383 126.19058 
L 140.077013 126.030429 
L 140.218643 119.507748 
L 140.501904 121.483032 
L 140.643534 126.151712 
L 140.785165 125.588532 
L 140.926795 120.351386 
L 141.068425 119.841692 
L 141.210056 118.299661 
L 141.351686 119.931021 
L 141.634947 117.98258 
L 141.776577 122.097685 
L 141.918208 121.128778 
L 142.059838 114.619447 
L 142.201468 114.164479 
L 142.343099 114.49607 
L 142.484729 115.15694 
L 142.626359 117.619835 
L 142.76799 109.924242 
L 142.90962 108.316252 
L 143.05125 101.153437 
L 143.334511 112.753492 
L 143.476141 115.284005 
L 143.617772 121.471144 
L 143.759402 121.143719 
L 143.901033 117.090841 
L 144.042663 108.857318 
L 144.184293 111.150324 
L 144.325924 111.309612 
L 144.467554 107.480894 
L 144.609184 115.990485 
L 144.892445 109.267877 
L 145.034075 108.328411 
L 145.175706 109.834851 
L 145.317336 115.35713 
L 145.458966 115.527505 
L 145.600597 115.176012 
L 145.742227 112.09099 
L 145.883858 121.297878 
L 146.025488 121.540583 
L 146.167118 121.382687 
L 146.450379 113.064741 
L 146.592009 114.737366 
L 146.87527 123.537879 
L 147.0169 135.797417 
L 147.583422 135.797417 
L 147.725052 133.236129 
L 147.866683 122.884313 
L 148.008313 123.026562 
L 148.149943 120.894461 
L 148.291574 121.566191 
L 148.433204 121.393961 
L 148.574834 127.324685 
L 148.716465 123.158353 
L 148.858095 122.942762 
L 149.141356 114.527416 
L 149.424616 120.265717 
L 149.849508 114.079692 
L 149.991138 111.532131 
L 150.132768 113.832597 
L 150.274399 112.308465 
L 150.557659 114.801568 
L 150.69929 120.183106 
L 150.98255 112.159147 
L 151.124181 112.173757 
L 151.265811 110.57956 
L 151.407441 114.501267 
L 151.549072 113.332748 
L 151.690702 115.433973 
L 151.832333 114.353061 
L 151.973963 118.100829 
L 152.257224 114.721055 
L 152.398854 110.725622 
L 152.682115 113.792251 
L 152.823745 117.495345 
L 152.965375 125.052069 
L 153.107006 125.899297 
L 153.390266 117.265057 
L 153.531897 118.999793 
L 153.673527 118.866116 
L 153.815158 119.144227 
L 154.240049 135.797417 
L 154.66494 135.797417 
L 154.9482 140.605309 
L 155.373091 130.302838 
L 155.656352 133.163958 
L 155.797983 137.891518 
L 156.081243 134.377189 
L 156.222874 135.797417 
L 156.789395 135.797417 
L 156.931025 132.154348 
L 157.355916 140.612403 
L 157.497547 139.077517 
L 157.780808 129.125349 
L 157.922438 132.539511 
L 158.064068 133.018918 
L 158.205699 132.170407 
L 158.347329 134.575079 
L 158.488959 132.942535 
L 158.63059 135.118817 
L 158.77222 129.455947 
L 158.91385 132.513142 
L 159.197111 123.493351 
L 159.338741 126.465093 
L 159.480372 125.284222 
L 159.763632 131.208307 
L 159.905263 134.768037 
L 160.046893 134.096633 
L 160.188524 132.546745 
L 160.330154 136.621828 
L 160.471784 135.797417 
L 161.038306 135.797417 
L 161.321566 139.846114 
L 161.463197 139.178823 
L 161.604827 140.12705 
L 161.746457 138.922889 
L 161.888088 139.570186 
L 162.312979 156.779246 
L 162.59624 152.818371 
L 162.73787 158.627779 
L 162.8795 157.36998 
L 163.021131 154.909044 
L 163.162761 154.432446 
L 163.304391 158.271753 
L 163.446022 155.902337 
L 163.729282 145.618282 
L 163.870913 149.462015 
L 164.012543 147.070497 
L 164.154174 147.103524 
L 164.295804 144.919199 
L 164.437434 146.330549 
L 164.720695 162.228747 
L 164.862325 164.280458 
L 165.003956 164.175971 
L 165.145586 168.872443 
L 165.428847 163.482147 
L 165.570477 163.517592 
L 165.712107 162.576179 
L 165.853738 155.876995 
L 165.995368 154.954962 
L 166.278629 158.120763 
L 166.420259 154.779466 
L 166.56189 157.543025 
L 166.70352 156.458913 
L 167.270041 144.968597 
L 167.411672 139.078227 
L 167.694932 146.062356 
L 167.836563 145.331012 
L 168.119824 150.466632 
L 168.403084 145.780458 
L 168.544715 145.952039 
L 168.686345 142.605443 
L 168.827975 148.850577 
L 168.969606 135.797417 
L 169.536127 135.797417 
L 169.819388 139.025058 
L 169.961018 138.407448 
L 170.102649 138.820947 
L 170.244279 141.07884 
L 170.385909 134.126481 
L 170.52754 133.797208 
L 170.66917 132.265925 
L 170.8108 135.722395 
L 170.952431 134.987028 
L 171.094061 135.797417 
L 171.660582 135.797417 
L 171.943843 132.67535 
L 172.085474 129.500092 
L 172.227104 129.429836 
L 172.368734 131.547172 
L 172.510365 131.41931 
L 172.935256 123.973696 
L 173.076886 125.958923 
L 173.218516 122.645527 
L 173.360147 123.57161 
L 173.501777 126.065729 
L 173.643407 121.241843 
L 173.785038 127.988398 
L 173.926668 123.398525 
L 174.068299 126.687399 
L 174.209929 126.531926 
L 174.351559 126.985461 
L 174.49319 129.297901 
L 174.63482 129.159511 
L 174.77645 131.385966 
L 175.059711 143.907665 
L 175.201341 142.522585 
L 175.484602 138.8148 
L 175.767863 142.063502 
L 175.909493 144.006661 
L 176.051124 141.906624 
L 176.334384 150.271356 
L 176.476015 146.538033 
L 176.617645 148.855002 
L 176.900906 144.522599 
L 177.042536 148.291416 
L 177.184166 143.99906 
L 177.325797 147.197469 
L 177.467427 143.700431 
L 177.609057 145.246298 
L 177.892318 142.064343 
L 178.033949 142.025223 
L 178.175579 139.512214 
L 178.317209 143.56074 
L 178.60047 136.023178 
L 178.883731 131.539349 
L 179.025361 130.963498 
L 179.166991 129.181732 
L 179.308622 129.190931 
L 179.591882 136.262949 
L 179.733513 136.780424 
L 179.875143 140.083811 
L 180.016773 146.929159 
L 180.158404 146.084051 
L 180.300034 143.756319 
L 180.441665 146.260285 
L 180.583295 144.802499 
L 180.724925 146.918319 
L 180.866556 144.942761 
L 181.008186 145.19792 
L 181.149816 142.095557 
L 181.291447 147.076608 
L 181.433077 146.154164 
L 181.574707 157.283033 
L 181.857968 150.467359 
L 182.141229 141.738061 
L 182.282859 142.965255 
L 182.42449 135.797417 
L 182.991011 135.797417 
L 183.415902 149.401533 
L 183.557532 148.06484 
L 183.699163 148.632842 
L 183.840793 149.679494 
L 183.982423 142.591935 
L 184.124054 145.109925 
L 184.265684 144.982818 
L 184.407315 140.354947 
L 184.548945 139.98077 
L 184.832206 143.58531 
L 184.973836 143.139805 
L 185.115466 146.565147 
L 185.257097 155.277167 
L 185.540357 149.875681 
L 185.681988 148.515386 
L 185.823618 152.413983 
L 185.965248 153.202692 
L 186.106879 152.555438 
L 186.39014 147.44621 
L 186.815031 157.428758 
L 186.956661 157.504316 
L 187.098291 155.518065 
L 187.239922 155.411065 
L 187.523182 150.442581 
L 187.664813 151.52458 
L 187.806443 149.643523 
L 187.948073 150.901582 
L 188.372965 142.468717 
L 188.656225 152.678368 
L 188.797856 154.170906 
L 188.939486 152.766083 
L 189.081116 153.266736 
L 189.364377 162.044876 
L 189.506007 156.412638 
L 189.647638 158.840706 
L 189.789268 157.403127 
L 190.214159 172.218439 
L 190.35579 172.312635 
L 190.49742 170.524327 
L 190.63905 180.730683 
L 190.780681 181.14937 
L 190.922311 179.699763 
L 191.063941 176.40068 
L 191.205572 179.935156 
L 191.347202 179.234399 
L 191.488832 185.530213 
L 191.772093 178.928813 
L 192.055354 185.537998 
L 192.338615 181.363793 
L 192.621875 182.39637 
L 192.763506 179.692328 
L 192.905136 180.039019 
L 193.046766 185.304966 
L 193.330027 181.372268 
L 193.471657 189.988818 
L 193.613288 186.808589 
L 193.896548 177.134537 
L 194.038179 177.049985 
L 194.32144 185.551334 
L 194.46307 184.076873 
L 194.887961 193.103219 
L 195.029591 189.992007 
L 195.171222 195.347574 
L 195.312852 194.258525 
L 195.454482 189.843905 
L 195.596113 190.921879 
L 195.737743 188.376248 
L 195.879373 188.622993 
L 196.021004 192.579175 
L 196.304265 193.334098 
L 196.445895 193.125114 
L 196.729156 200.250815 
L 196.870786 199.97808 
L 197.012416 199.683608 
L 197.295677 206.928478 
L 197.437307 208.877339 
L 197.578938 203.798619 
L 197.862198 209.520998 
L 198.003829 207.920028 
L 198.145459 208.159546 
L 198.287089 212.325035 
L 198.42872 212.298907 
L 198.853611 205.888879 
L 199.136872 210.076035 
L 199.420132 207.831497 
L 199.561763 198.905188 
L 199.703393 201.657907 
L 199.986654 195.172487 
L 200.128284 200.408915 
L 200.269914 201.407485 
L 200.411545 203.997884 
L 200.694806 193.2035 
L 200.836436 193.061608 
L 200.978066 191.964115 
L 201.119697 192.953593 
L 201.402957 188.467163 
L 201.544588 135.797417 
L 202.111109 135.797417 
L 202.252739 138.903933 
L 202.536 131.965898 
L 202.677631 132.593527 
L 202.819261 128.322181 
L 202.960891 129.39359 
L 203.244152 125.580644 
L 203.527413 135.691739 
L 203.810673 135.797417 
L 204.235564 135.797417 
L 204.377195 135.995471 
L 204.518825 137.719887 
L 204.660456 137.278304 
L 204.802086 138.500704 
L 205.085347 144.155163 
L 205.226977 142.540797 
L 205.368607 138.103236 
L 205.510238 138.440345 
L 205.651868 141.028757 
L 205.793498 139.39253 
L 205.935129 144.893447 
L 206.076759 143.81588 
L 206.218389 143.741797 
L 206.50165 149.234974 
L 206.643281 150.897256 
L 206.784911 149.900933 
L 206.926541 156.198206 
L 207.068172 155.916638 
L 207.209802 154.873 
L 207.493063 150.350431 
L 207.634693 152.730418 
L 207.917954 149.591769 
L 208.201214 155.277941 
L 208.342845 152.4369 
L 208.484475 152.493171 
L 208.767736 160.190215 
L 209.192627 165.367545 
L 209.475888 164.356899 
L 209.617518 161.901627 
L 209.759148 156.48815 
L 209.900779 156.308508 
L 210.042409 157.046788 
L 210.184039 155.918776 
L 210.32567 153.681651 
L 210.4673 154.609751 
L 210.608931 154.42986 
L 210.750561 151.706208 
L 210.892191 154.971239 
L 211.175452 151.061188 
L 211.317082 151.572809 
L 211.458713 148.76063 
L 211.600343 156.57305 
L 211.883604 154.992329 
L 212.166864 148.734385 
L 212.308495 148.822503 
L 212.450125 150.799705 
L 212.733386 141.388849 
L 212.875016 144.002211 
L 213.016647 144.114823 
L 213.299907 150.250971 
L 213.441538 151.042325 
L 213.583168 150.352782 
L 213.866429 157.269965 
L 214.149689 155.423277 
L 214.574581 167.392226 
L 214.716211 164.344855 
L 214.857841 166.613976 
L 214.999472 166.591024 
L 215.141102 163.003465 
L 215.424363 164.297418 
L 215.565993 161.845897 
L 215.707623 163.406423 
L 215.849254 161.315565 
L 215.990884 163.384912 
L 216.132514 163.123391 
L 216.274145 163.937184 
L 216.415775 159.737085 
L 216.557405 160.458431 
L 216.699036 158.766377 
L 216.840666 166.575716 
L 216.982297 167.274953 
L 217.123927 172.601176 
L 217.265557 170.369693 
L 217.548818 161.725909 
L 217.690448 158.3356 
L 218.115339 166.740618 
L 218.25697 166.602301 
L 218.3986 167.152951 
L 218.54023 165.798411 
L 218.681861 162.964095 
L 218.965122 169.744572 
L 219.248382 162.726747 
L 219.390013 163.192111 
L 219.531643 165.436651 
L 219.673273 164.801804 
L 219.814904 167.602361 
L 220.098164 161.062824 
L 220.239795 162.315332 
L 220.523055 168.105953 
L 220.664686 164.927725 
L 220.806316 159.180143 
L 220.947947 163.065447 
L 221.089577 159.60786 
L 221.231207 160.940735 
L 221.372838 135.797417 
L 222.080989 135.823358 
L 222.22262 130.917939 
L 222.50588 131.184741 
L 222.647511 132.489478 
L 222.789141 135.797417 
L 223.355663 135.797417 
L 223.497293 135.307536 
L 223.780554 137.883603 
L 224.063814 127.876839 
L 224.205445 125.160373 
L 224.347075 130.241048 
L 224.630336 125.370094 
L 224.771966 128.283276 
L 224.913597 123.150037 
L 225.055227 125.436028 
L 225.338488 133.779339 
L 225.621748 135.797417 
L 226.18827 135.797417 
L 226.896422 142.966156 
L 227.179682 140.809085 
L 227.321313 139.018342 
L 227.462943 139.120389 
L 227.746204 135.797417 
L 228.312725 135.797417 
L 228.454355 135.588067 
L 228.595986 129.313177 
L 228.879247 126.301211 
L 229.020877 127.065582 
L 229.162507 128.513208 
L 229.304138 128.530247 
L 229.445768 130.501541 
L 229.587398 123.410702 
L 229.729029 125.002504 
L 229.870659 119.150015 
L 230.012289 120.555737 
L 230.15392 117.703101 
L 230.43718 126.794469 
L 230.578811 126.568372 
L 230.720441 127.550195 
L 230.862072 130.906502 
L 231.145332 123.419406 
L 231.286963 122.271356 
L 231.428593 118.513693 
L 231.711854 123.288962 
L 231.853484 117.358069 
L 231.995114 125.067631 
L 232.136745 121.515492 
L 232.278375 121.126789 
L 232.561636 113.524906 
L 232.703266 114.560668 
L 233.128157 127.820579 
L 233.411418 122.429473 
L 233.553048 125.475044 
L 233.694679 121.998628 
L 233.977939 125.772925 
L 234.11957 125.599707 
L 234.2612 126.79449 
L 234.40283 122.543273 
L 234.544461 123.441727 
L 234.686091 126.314498 
L 234.827722 135.797417 
L 235.394243 135.797417 
L 235.677504 138.475738 
L 235.819134 136.624565 
L 235.960764 138.967008 
L 236.102395 138.881158 
L 236.244025 135.797417 
L 236.952177 135.760404 
L 237.093807 134.393438 
L 237.377068 141.083084 
L 237.518698 137.741921 
L 237.660329 138.004786 
L 237.801959 137.719069 
L 237.943589 142.253171 
L 238.08522 142.911261 
L 238.22685 139.953591 
L 238.36848 142.275737 
L 238.651741 134.203468 
L 238.935002 142.562596 
L 239.076632 139.615259 
L 239.218263 141.352921 
L 239.359893 137.950069 
L 239.643154 142.945085 
L 239.784784 140.122613 
L 239.926414 143.335835 
L 240.068045 141.814499 
L 240.351305 145.255455 
L 240.634566 145.362003 
L 240.776196 144.923861 
L 240.917827 147.082191 
L 241.201088 138.692362 
L 241.342718 140.237912 
L 241.484348 145.816872 
L 241.625979 144.396904 
L 241.767609 145.681592 
L 242.05087 135.688954 
L 242.1925 138.133954 
L 242.33413 135.298752 
L 242.475761 139.075402 
L 242.617391 135.797417 
L 243.183913 135.797417 
L 243.467173 140.024653 
L 243.608804 138.015811 
L 243.750434 141.754886 
L 243.892064 139.905325 
L 244.033695 140.255104 
L 244.175325 147.869391 
L 244.316955 147.678352 
L 244.600216 154.342106 
L 244.741846 151.249668 
L 244.883477 152.314552 
L 245.025107 158.95698 
L 245.166738 156.12454 
L 245.308368 155.610644 
L 245.449998 155.919435 
L 245.591629 154.756918 
L 245.733259 162.338304 
L 245.874889 162.735382 
L 246.01652 166.902664 
L 246.15815 166.347807 
L 246.441411 158.020217 
L 246.583041 157.668434 
L 246.724671 154.774655 
L 246.866302 156.696185 
L 247.149563 165.321446 
L 247.291193 162.923808 
L 247.574454 165.312305 
L 247.716084 171.227748 
L 247.857714 172.273648 
L 248.140975 181.139707 
L 248.282605 176.121061 
L 248.424236 179.619609 
L 248.707496 170.682355 
L 248.849127 172.91958 
L 249.274018 166.038941 
L 249.415648 166.612692 
L 249.557279 166.281413 
L 249.840539 160.364784 
L 249.98217 160.60835 
L 250.407061 172.645408 
L 250.548691 172.482621 
L 250.831952 167.978049 
L 251.115213 162.188638 
L 251.256843 163.264934 
L 251.398473 156.276439 
L 251.540104 154.832858 
L 251.681734 150.481067 
L 251.964995 164.208022 
L 252.106625 165.837548 
L 252.248255 161.86036 
L 252.389886 162.325788 
L 252.531516 165.569252 
L 252.673146 164.27413 
L 252.814777 164.455066 
L 252.956407 159.240112 
L 253.098038 164.65085 
L 253.239668 163.301288 
L 253.381298 163.782324 
L 253.522929 165.361787 
L 253.664559 163.29135 
L 253.94782 170.177851 
L 254.08945 171.169321 
L 254.23108 176.755857 
L 254.372711 176.087925 
L 254.514341 172.312242 
L 254.797602 171.509824 
L 254.939232 175.018313 
L 255.080862 171.905902 
L 255.364123 176.168068 
L 255.505754 183.224966 
L 255.647384 183.932086 
L 255.789014 179.608819 
L 255.930645 185.247507 
L 256.213905 176.223529 
L 256.638796 181.304774 
L 256.780427 185.10661 
L 256.922057 185.165352 
L 257.063687 200.725625 
L 257.205318 203.808848 
L 257.346948 210.858072 
L 257.630209 205.091835 
L 257.771839 205.049584 
L 257.91347 199.251928 
L 258.338361 210.905458 
L 258.479991 212.594766 
L 258.621621 211.66214 
L 258.763252 209.089145 
L 258.904882 210.704392 
L 259.046512 215.945702 
L 259.188143 213.893208 
L 259.329773 214.005471 
L 259.471404 209.414114 
L 259.613034 212.927744 
L 259.754664 211.012597 
L 259.896295 212.291679 
L 260.037925 208.01798 
L 260.179555 207.676907 
L 260.462816 212.652532 
L 260.604446 212.501169 
L 260.746077 210.31005 
L 260.887707 211.663775 
L 261.029337 211.228916 
L 261.312598 217.464513 
L 261.454229 218.207457 
L 261.737489 211.29309 
L 261.87912 205.345099 
L 262.02075 211.701384 
L 262.16238 212.461845 
L 262.304011 203.535816 
L 262.445641 207.333164 
L 262.587271 204.905243 
L 262.728902 206.656216 
L 263.437054 194.314485 
L 263.578684 194.809529 
L 263.720314 194.587841 
L 263.861945 197.667528 
L 264.145205 186.729647 
L 264.286836 187.260011 
L 264.570096 179.52741 
L 264.711727 177.89487 
L 264.853357 184.415089 
L 264.994987 182.712542 
L 265.136618 184.008749 
L 265.278248 181.789354 
L 265.561509 186.127421 
L 265.703139 185.514361 
L 265.84477 181.462744 
L 265.9864 181.607818 
L 266.12803 185.408848 
L 266.269661 185.824665 
L 266.552921 190.932873 
L 266.694552 135.797417 
L 267.261073 135.797417 
L 267.544334 132.927813 
L 267.685964 128.181525 
L 267.969225 136.403875 
L 268.110855 135.797417 
L 268.677377 135.797417 
L 268.819007 135.972258 
L 268.960637 134.851302 
L 269.102268 132.683968 
L 269.243898 133.058179 
L 269.385529 135.767509 
L 269.95205 135.797417 
L 270.09368 135.797417 
L 270.235311 128.47584 
L 270.376941 128.164778 
L 270.518571 136.562069 
L 270.660202 137.26437 
L 270.801832 136.791394 
L 270.943462 137.619452 
L 271.226723 130.640924 
L 271.368354 131.201344 
L 271.509984 132.470721 
L 271.651614 135.797417 
L 272.218136 135.797417 
L 272.501396 128.615811 
L 272.643027 130.165887 
L 272.784657 129.868224 
L 272.926287 132.07387 
L 273.067918 129.278257 
L 273.351179 134.988611 
L 273.492809 135.406868 
L 273.634439 140.464711 
L 273.77607 140.275128 
L 273.9177 138.840077 
L 274.05933 138.995297 
L 274.342591 145.165728 
L 274.484221 142.221561 
L 274.625852 144.347713 
L 274.767482 144.30171 
L 274.909112 144.088546 
L 275.192373 140.01967 
L 275.334003 145.745206 
L 275.475634 142.210382 
L 275.617264 142.10046 
L 275.758895 141.13425 
L 275.900525 139.064476 
L 276.042155 141.571124 
L 276.325416 139.800006 
L 276.467046 143.943741 
L 276.608677 143.456824 
L 276.750307 142.537159 
L 276.891937 147.686801 
L 277.033568 147.484335 
L 277.175198 147.94395 
L 277.316828 147.468437 
L 277.458459 147.785586 
L 277.600089 149.392767 
L 277.74172 147.276129 
L 277.88335 152.471627 
L 278.02498 142.313796 
L 278.166611 149.294602 
L 278.449871 142.519728 
L 278.733132 150.956015 
L 279.016393 155.183411 
L 279.299653 150.560902 
L 279.724545 157.030367 
L 279.866175 155.166954 
L 280.007805 151.086907 
L 280.149436 156.949199 
L 280.291066 155.203157 
L 280.574327 161.305234 
L 280.857587 171.500074 
L 280.999218 171.066784 
L 281.282478 161.476991 
L 281.424109 154.564258 
L 281.565739 153.583099 
L 281.70737 157.417617 
L 281.849 151.854833 
L 281.99063 156.059703 
L 282.132261 152.994217 
L 282.273891 154.774001 
L 282.415521 153.753487 
L 282.557152 155.156742 
L 282.840412 152.821922 
L 283.123673 155.306202 
L 283.406934 146.965236 
L 283.548564 144.083394 
L 283.831825 151.000432 
L 283.973455 144.796728 
L 284.256716 150.990285 
L 284.539977 148.243139 
L 284.681607 148.101943 
L 284.823237 145.103559 
L 284.964868 154.223458 
L 285.106498 151.523129 
L 285.248128 154.477512 
L 285.389759 152.477984 
L 285.531389 148.828405 
L 285.67302 149.127998 
L 285.81465 135.797417 
L 286.381171 135.797417 
L 286.522802 137.91661 
L 286.664432 137.425975 
L 286.947693 140.287971 
L 287.089323 133.866179 
L 287.230953 135.797417 
L 287.797475 135.797417 
L 287.939105 136.70845 
L 288.080736 138.983034 
L 288.222366 135.654793 
L 288.363996 140.298865 
L 288.505627 140.600699 
L 288.647257 137.859843 
L 288.788887 137.890573 
L 289.072148 133.952725 
L 289.497039 129.843409 
L 289.92193 140.350482 
L 290.063561 140.952989 
L 290.205191 142.570567 
L 290.346821 141.708961 
L 290.488452 141.548831 
L 290.630082 140.957317 
L 291.196603 132.352974 
L 291.338234 133.281417 
L 291.479864 130.875481 
L 291.621495 130.814349 
L 291.763125 134.801202 
L 291.904755 135.348366 
L 292.046386 137.055075 
L 292.188016 135.797417 
L 292.754537 135.797417 
L 292.896168 135.473419 
L 293.037798 141.853282 
L 293.179428 140.793068 
L 293.321059 141.645077 
L 293.462689 138.697618 
L 293.604319 139.719782 
L 293.74595 130.48208 
L 293.88758 133.286439 
L 294.029211 138.587731 
L 294.312471 128.526187 
L 294.595732 131.803657 
L 294.737362 129.585135 
L 294.878993 136.628109 
L 295.020623 135.797417 
L 295.587144 135.797417 
L 295.728775 130.662554 
L 295.870405 132.324117 
L 296.153666 138.610927 
L 296.295296 134.793669 
L 296.436927 135.797417 
L 297.003448 135.797417 
L 297.145078 132.014254 
L 297.286709 142.00466 
L 297.428339 142.559251 
L 297.569969 140.514803 
L 297.85323 147.458417 
L 297.994861 145.543901 
L 298.136491 145.686529 
L 298.278121 146.442937 
L 298.561382 142.012008 
L 298.703012 144.977338 
L 298.844643 142.097349 
L 298.986273 142.503842 
L 299.127903 143.443878 
L 299.269534 140.129289 
L 299.552794 128.995487 
L 299.694425 134.463554 
L 299.977686 128.63034 
L 300.119316 133.599447 
L 300.402577 125.620805 
L 300.544207 129.553727 
L 300.685837 128.513836 
L 300.827468 129.448682 
L 300.969098 129.176467 
L 301.110728 132.15559 
L 301.252359 138.216218 
L 301.393989 135.797417 
L 301.960511 135.797417 
L 302.243771 145.50728 
L 302.385402 145.526882 
L 302.527032 144.182113 
L 302.668662 145.977873 
L 302.810293 142.022196 
L 303.093553 143.441223 
L 303.235184 149.174834 
L 303.376814 149.149562 
L 303.518444 145.100352 
L 303.660075 145.110823 
L 303.801705 146.783127 
L 304.084966 151.833691 
L 304.226596 151.264995 
L 304.368227 151.870861 
L 304.509857 147.19161 
L 304.651487 148.673398 
L 305.076378 158.348165 
L 305.218009 159.218684 
L 305.359639 159.167718 
L 305.501269 157.682347 
L 305.6429 158.511289 
L 305.78453 155.502424 
L 305.926161 157.38258 
L 306.067791 157.404239 
L 306.209421 156.591858 
L 306.351052 157.160836 
L 306.634312 160.378739 
L 306.775943 161.489854 
L 307.059203 153.163999 
L 307.200834 152.031307 
L 307.342464 155.497449 
L 307.625725 164.438056 
L 307.767355 166.554527 
L 308.050616 162.042274 
L 308.192246 166.072547 
L 308.333877 166.289293 
L 308.475507 164.835146 
L 308.617137 166.95025 
L 308.758768 166.497768 
L 308.900398 168.658058 
L 309.042028 162.943612 
L 309.183659 163.475589 
L 309.466919 167.410963 
L 309.60855 168.426918 
L 309.75018 166.631906 
L 309.891811 167.885932 
L 310.033441 172.299325 
L 310.175071 172.02728 
L 310.316702 172.075525 
L 310.458332 171.945714 
L 310.741593 181.226388 
L 311.024853 183.645876 
L 311.166484 190.09759 
L 311.308114 189.352425 
L 311.449744 190.544653 
L 311.591375 187.161597 
L 311.733005 193.812175 
L 311.874636 188.967056 
L 312.016266 194.311424 
L 312.582787 188.530654 
L 312.724418 192.046347 
L 312.866048 199.168263 
L 313.007678 194.171533 
L 313.149309 200.25364 
L 313.290939 200.997547 
L 313.432569 196.946661 
L 313.5742 198.347829 
L 313.71583 196.713471 
L 313.85746 197.093054 
L 313.999091 198.841514 
L 314.282352 191.751741 
L 314.423982 192.007202 
L 314.565612 191.468785 
L 314.707243 189.321339 
L 314.848873 193.305358 
L 314.990503 192.818 
L 315.132134 194.112465 
L 315.273764 193.406458 
L 315.415394 197.561547 
L 315.557025 194.082106 
L 315.840285 202.691504 
L 315.981916 197.001531 
L 316.123546 195.780006 
L 316.265177 196.130581 
L 316.548437 191.243403 
L 316.690068 193.161714 
L 316.831698 193.066689 
L 316.973328 192.329676 
L 317.256589 195.961695 
L 317.398219 186.897595 
L 317.53985 188.962811 
L 317.964741 182.518671 
L 318.248002 186.718284 
L 318.389632 186.35174 
L 318.531262 182.010448 
L 318.814523 195.607329 
L 318.956153 194.744178 
L 319.097784 197.381879 
L 319.239414 192.608736 
L 319.381044 193.318083 
L 319.522675 195.272553 
L 319.664305 193.434855 
L 319.805935 199.751949 
L 319.947566 199.986165 
L 320.089196 197.844894 
L 320.230827 203.544253 
L 320.372457 198.104425 
L 320.514087 198.947185 
L 320.797348 205.790159 
L 320.938978 208.346797 
L 321.080609 205.629748 
L 321.363869 216.500371 
L 321.5055 211.625338 
L 321.64713 213.659993 
L 321.78876 210.742895 
L 321.930391 212.053569 
L 322.072021 212.048632 
L 322.496912 206.016809 
L 322.638543 205.876985 
L 322.780173 206.417988 
L 322.921803 205.080617 
L 323.063434 202.517332 
L 323.205064 203.568023 
L 323.346694 207.534725 
L 323.629955 204.040544 
L 323.771585 207.068507 
L 323.913216 203.878837 
L 324.054846 206.964899 
L 324.196477 205.895489 
L 324.338107 200.472142 
L 324.621368 207.457643 
L 324.762998 206.516414 
L 324.904628 211.010663 
L 325.187889 210.830616 
L 325.329519 213.430175 
L 325.47115 213.071598 
L 325.61278 214.847239 
L 325.75441 212.963164 
L 325.896041 213.697904 
L 326.037671 203.866866 
L 326.179302 202.28362 
L 326.320932 208.772897 
L 326.604193 199.327418 
L 326.745823 199.133395 
L 326.887453 135.797417 
L 327.453975 135.797417 
L 327.595605 136.079132 
L 327.878866 128.194212 
L 328.020496 131.766975 
L 328.162127 132.240062 
L 328.303757 135.797417 
L 328.870278 135.797417 
L 329.153539 140.528815 
L 329.295169 146.356724 
L 329.4368 143.125407 
L 329.57843 145.174781 
L 329.861691 141.174508 
L 330.003321 142.410192 
L 330.286582 140.138779 
L 330.428212 135.797417 
L 330.994734 135.797417 
L 331.136364 134.458783 
L 331.561255 140.685349 
L 331.702885 141.032951 
L 331.986146 134.983736 
L 332.127776 134.500371 
L 332.411037 138.829157 
L 332.552668 138.804351 
L 332.694298 139.873581 
L 332.835928 136.948938 
L 332.977559 137.65139 
L 333.119189 139.094432 
L 333.40245 137.78248 
L 333.54408 135.133393 
L 333.68571 134.705845 
L 333.827341 137.65806 
L 333.968971 137.650695 
L 334.110601 137.20835 
L 334.252232 135.519698 
L 334.393862 137.273615 
L 334.535493 131.247371 
L 334.677123 136.83022 
L 334.818753 135.745909 
L 334.960384 133.013264 
L 335.102014 138.08905 
L 335.243644 135.543148 
L 335.385275 135.797417 
L 336.093426 135.889304 
L 336.376687 138.884747 
L 336.518318 139.206884 
L 336.659948 140.034306 
L 336.801578 137.688687 
L 336.943209 139.102746 
L 337.084839 134.703296 
L 337.50973 147.507856 
L 337.65136 146.187834 
L 337.792991 148.436875 
L 338.076251 146.678999 
L 338.359512 156.18758 
L 338.501143 154.855969 
L 338.642773 156.645841 
L 338.784403 154.554406 
L 338.926034 154.583833 
L 339.067664 154.948649 
L 339.209294 158.9984 
L 339.350925 154.77051 
L 339.492555 155.573522 
L 339.634185 151.816581 
L 339.775816 152.09618 
L 339.917446 148.975149 
L 340.059076 148.582694 
L 340.483968 158.758369 
L 340.625598 154.051071 
L 340.767228 154.6527 
L 340.908859 157.979478 
L 341.050489 154.526096 
L 341.192119 154.313918 
L 341.33375 155.237865 
L 341.47538 154.765111 
L 341.61701 152.379414 
L 341.758641 152.209933 
L 341.900271 149.569202 
L 342.183532 161.195899 
L 342.325162 162.210646 
L 342.466793 159.090359 
L 342.608423 161.504431 
L 342.750053 158.902984 
L 342.891684 158.914041 
L 343.033314 162.624565 
L 343.174944 169.693247 
L 343.316575 169.024766 
L 343.458205 172.254146 
L 343.599835 172.860084 
L 343.741466 171.153115 
L 343.883096 170.989101 
L 344.307987 166.840802 
L 344.449618 166.370678 
L 344.591248 164.380003 
L 344.874509 166.890687 
L 345.016139 163.094848 
L 345.157769 165.62802 
L 345.2994 171.834864 
L 345.44103 169.807626 
L 345.724291 162.680399 
L 345.865921 159.38396 
L 346.007551 160.629633 
L 346.149182 164.101502 
L 346.432443 165.309526 
L 346.574073 165.040582 
L 346.715703 163.856518 
L 346.857334 159.282607 
L 347.140594 166.518699 
L 347.282225 166.390977 
L 347.423855 167.695703 
L 347.848746 179.339547 
L 347.990376 179.10078 
L 348.132007 178.592748 
L 348.415268 174.303344 
L 348.556898 177.677675 
L 348.698528 174.828747 
L 348.981789 181.597223 
L 349.123419 182.917692 
L 349.40668 188.324626 
L 350.398092 170.938696 
L 350.539723 164.894649 
L 350.681353 167.509695 
L 350.822984 165.790017 
L 350.964614 135.797417 
L 351.531135 135.797417 
L 351.672766 132.512896 
L 351.814396 123.922527 
L 351.956026 122.920048 
L 352.097657 120.363998 
L 352.380917 124.261801 
L 352.522548 123.31819 
L 352.664178 126.070411 
L 352.805809 125.704701 
L 352.947439 126.899719 
L 353.089069 125.489771 
L 353.37233 117.595258 
L 353.51396 118.481134 
L 353.655591 120.54658 
L 353.797221 117.856275 
L 353.938851 123.56809 
L 354.080482 124.649539 
L 354.222112 130.231819 
L 354.363742 128.110327 
L 354.505373 135.797417 
L 355.071894 135.797417 
L 355.213525 132.62218 
L 355.355155 132.157655 
L 355.496785 132.112964 
L 355.780046 135.432557 
L 355.921676 133.863621 
L 356.063307 135.175839 
L 356.204937 134.350045 
L 356.346567 132.001666 
L 356.488198 134.44661 
L 356.629828 132.811897 
L 356.913089 139.899456 
L 357.054719 139.523732 
L 357.47961 135.797417 
L 357.904501 135.797417 
L 358.046132 136.43665 
L 358.187762 139.26597 
L 358.471023 145.919112 
L 358.612653 145.298567 
L 359.037544 148.247469 
L 359.179175 151.041798 
L 359.320805 149.913888 
L 359.462435 151.798612 
L 359.604066 150.752736 
L 359.745696 148.517729 
L 359.887326 152.218631 
L 360.028957 151.587659 
L 360.170587 156.677692 
L 360.312217 156.141239 
L 360.453848 156.106644 
L 360.595478 154.906362 
L 360.737109 152.046398 
L 360.878739 155.461756 
L 361.020369 163.11213 
L 361.30363 161.879367 
L 361.44526 156.112255 
L 361.586891 159.308706 
L 361.728521 159.591218 
L 361.870151 166.116422 
L 362.153412 162.036521 
L 362.436673 164.182638 
L 362.578303 161.240821 
L 362.861564 167.789794 
L 363.003194 164.250729 
L 363.144825 165.464441 
L 363.286455 164.061235 
L 363.569716 157.329725 
L 363.711346 157.451735 
L 363.994607 164.417517 
L 364.277867 157.982369 
L 364.561128 152.320115 
L 364.844389 157.437376 
L 364.986019 155.366933 
L 365.12765 155.243088 
L 365.26928 150.451144 
L 365.41091 149.794535 
L 365.552541 148.243896 
L 365.694171 145.083762 
L 365.835801 144.55687 
L 365.977432 147.048049 
L 366.119062 153.604662 
L 366.402323 152.078288 
L 366.543953 153.353144 
L 366.685584 148.085299 
L 366.827214 150.232567 
L 366.968844 148.25132 
L 367.110475 149.517597 
L 367.252105 135.797417 
L 367.818626 135.797417 
L 367.960257 134.961885 
L 368.101887 133.20335 
L 368.243517 133.677848 
L 368.385148 137.802831 
L 368.526778 133.628393 
L 368.668409 135.797417 
L 369.23493 135.797417 
L 369.37656 136.122185 
L 369.659821 127.129661 
L 369.801451 123.867594 
L 369.943082 130.735354 
L 370.084712 130.253924 
L 370.367973 124.955112 
L 370.509603 126.538777 
L 370.651233 124.80723 
L 370.792864 124.804435 
L 370.934494 124.147734 
L 371.076125 124.214925 
L 371.217755 123.133216 
L 371.359385 131.049719 
L 371.501016 131.112811 
L 371.642646 130.930859 
L 371.784276 127.042109 
L 371.925907 129.022326 
L 372.209167 125.961828 
L 372.350798 131.1549 
L 372.492428 130.292771 
L 372.634058 131.294973 
L 372.775689 135.905829 
L 373.05895 135.797417 
L 373.483841 135.797417 
L 373.625471 138.737474 
L 374.050362 134.655616 
L 374.333623 135.797417 
L 374.900144 135.797417 
L 375.183405 132.358957 
L 375.466666 138.078908 
L 375.608296 132.733738 
L 375.749926 136.308174 
L 375.891557 130.693107 
L 376.033187 133.236721 
L 376.174817 132.518525 
L 376.599708 135.797417 
L 377.0246 135.797417 
L 377.16623 133.493609 
L 377.449491 137.19676 
L 377.591121 135.667354 
L 377.732751 137.411006 
L 377.874382 135.797417 
L 378.440903 135.797417 
L 378.582533 140.72737 
L 378.724164 138.309194 
L 378.865794 144.787482 
L 379.007425 142.887609 
L 379.149055 142.860598 
L 379.290685 141.369541 
L 379.432316 138.636353 
L 379.715576 143.614711 
L 379.857207 143.103446 
L 380.282098 148.158813 
L 380.565358 149.767498 
L 380.848619 157.678108 
L 380.99025 151.197833 
L 381.13188 153.290517 
L 381.415141 160.398674 
L 381.556771 160.780687 
L 381.698401 159.073892 
L 381.840032 161.418857 
L 381.981662 161.0611 
L 382.264923 155.223784 
L 382.406553 150.502773 
L 382.548183 150.609904 
L 382.689814 156.274272 
L 382.831444 150.899335 
L 382.973075 153.072671 
L 383.114705 149.68505 
L 383.256335 150.102939 
L 383.539596 153.8847 
L 383.681226 158.212765 
L 384.106117 153.975222 
L 384.247748 156.741149 
L 384.389378 155.972692 
L 384.531008 151.159612 
L 384.672639 154.124329 
L 384.814269 153.632978 
L 385.09753 159.31775 
L 385.23916 155.663237 
L 385.380791 155.53829 
L 385.522421 156.241678 
L 385.664051 155.102319 
L 385.947312 150.334914 
L 386.088942 153.175442 
L 386.230573 161.963684 
L 386.513833 163.017036 
L 387.080355 172.281371 
L 387.646876 168.816098 
L 387.930137 164.769294 
L 388.071767 163.491531 
L 388.213398 165.123464 
L 388.355028 169.099729 
L 388.496658 163.951195 
L 388.638289 164.943501 
L 388.779919 167.408809 
L 388.921549 165.751878 
L 389.06318 171.449685 
L 389.346441 166.02391 
L 389.912962 181.582459 
L 390.054592 176.651805 
L 390.196223 164.991622 
L 390.337853 168.204476 
L 390.621114 161.871518 
L 390.762744 170.464896 
L 390.904374 169.266447 
L 391.187635 164.542056 
L 391.329266 170.769981 
L 391.612526 172.067789 
L 391.754157 177.72998 
L 392.320678 168.021363 
L 392.603939 170.034081 
L 392.745569 168.275343 
L 392.887199 169.469458 
L 393.02883 169.398711 
L 393.17046 169.091533 
L 393.312091 164.944956 
L 394.020242 178.184979 
L 394.161873 184.180654 
L 394.586764 176.827611 
L 394.870024 187.505472 
L 395.011655 186.244421 
L 395.153285 187.51673 
L 395.294916 191.629664 
L 395.436546 187.602994 
L 395.719807 192.697548 
L 395.861437 194.988316 
L 396.003067 192.12414 
L 396.286328 192.847181 
L 396.711219 200.691211 
L 396.852849 200.010928 
L 396.99448 204.369582 
L 397.13611 204.736401 
L 397.277741 205.536018 
L 397.561001 202.128833 
L 397.702632 204.458705 
L 397.844262 199.493811 
L 397.985892 200.98251 
L 398.127523 203.827064 
L 398.269153 203.287339 
L 398.410783 204.236926 
L 398.552414 206.998212 
L 398.694044 206.919019 
L 399.118935 212.336311 
L 399.260566 209.949477 
L 399.543826 203.492496 
L 399.685457 203.065553 
L 399.827087 203.439915 
L 400.110348 205.2066 
L 400.676869 197.812658 
L 400.818499 197.866723 
L 400.96013 201.948307 
L 401.10176 201.678389 
L 401.243391 199.92556 
L 401.385021 205.433456 
L 401.526651 203.244952 
L 401.668282 203.935702 
L 401.809912 200.68261 
L 402.234803 207.091578 
L 402.376433 207.798397 
L 402.518064 206.337085 
L 402.659694 206.60618 
L 402.801324 203.97256 
L 403.084585 210.400813 
L 403.226216 213.050848 
L 403.367846 208.582599 
L 403.509476 208.695944 
L 403.651107 205.143868 
L 403.792737 213.052094 
L 403.934367 212.082291 
L 404.217628 218.64246 
L 404.359258 216.630794 
L 404.500889 218.88 
L 404.92578 212.029156 
L 405.06741 212.033319 
L 405.209041 211.381226 
L 405.350671 216.037954 
L 405.492301 216.601073 
L 405.633932 217.689027 
L 406.058823 210.671382 
L 406.200453 214.074036 
L 406.342083 212.832195 
L 406.483714 208.520729 
L 406.625344 208.24774 
L 406.766974 207.330081 
L 406.766974 207.330081 
" clip-path="url(#p24ba3b7a94)" style="fill: none; stroke: #ff0000; stroke-width: 0.5; stroke-linecap: square"/>
   </g>
   <g id="patch_3">
    <path d="M 87.185156 228.96 
L 87.185156 7.2 
" style="fill: none; stroke: #000000; stroke-width: 0.8; stroke-linejoin: miter; stroke-linecap: square"/>
   </g>
   <g id="patch_4">
    <path d="M 421.985156 228.96 
L 421.985156 7.2 
" style="fill: none; stroke: #000000; stroke-width: 0.8; stroke-linejoin: miter; stroke-linecap: square"/>
   </g>
   <g id="patch_5">
    <path d="M 87.185156 228.96 
L 421.985156 228.96 
" style="fill: none; stroke: #000000; stroke-width: 0.8; stroke-linejoin: miter; stroke-linecap: square"/>
   </g>
   <g id="patch_6">
    <path d="M 87.185156 7.2 
L 421.985156 7.2 
" style="fill: none; stroke: #000000; stroke-width: 0.8; stroke-linejoin: miter; stroke-linecap: square"/>
   </g>
  </g>
 </g>
 <defs>
  <clipPath id="p24ba3b7a94">
   <rect x="87.185156" y="7.2" width="334.8" height="221.76"/>
  </clipPath>
 </defs>
</svg>
